<svg width="24" height="24" viewBox="0 0 24 24" fill="none" xmlns="http://www.w3.org/2000/svg">
<g clip-path="url(#clip0_27_6)">
<path d="M23.954 4.56899C23.0555 4.96459 22.1036 5.22573 21.129 5.34399C22.1551 4.72724 22.9234 3.76003 23.292 2.62099C22.341 3.17599 21.287 3.57999 20.165 3.80499C19.4248 3.01342 18.4439 2.48841 17.3746 2.31149C16.3054 2.13457 15.2077 2.31564 14.2519 2.82658C13.2962 3.33752 12.5359 4.14974 12.0891 5.13711C11.6423 6.12449 11.534 7.23176 11.781 8.28699C7.691 8.09399 4.066 6.12999 1.64 3.16099C1.19879 3.9108 0.968664 4.76601 0.974 5.63599C0.974 7.34599 1.844 8.84899 3.162 9.73199C2.38086 9.70712 1.61697 9.49592 0.934 9.11599V9.17699C0.933557 10.3134 1.32627 11.4149 2.04551 12.2947C2.76474 13.1746 3.76621 13.7785 4.88 14.004C4.1583 14.1974 3.40241 14.2264 2.668 14.089C2.98425 15.0669 3.59783 15.9218 4.42315 16.5343C5.24847 17.1468 6.24439 17.4865 7.272 17.506C5.53149 18.8719 3.38246 19.6132 1.17 19.611C0.78 19.611 0.391 19.588 0 19.544C2.25571 20.9883 4.87851 21.755 7.557 21.753C16.611 21.753 21.556 14.257 21.556 7.76699C21.556 7.55799 21.556 7.34699 21.541 7.13699C22.507 6.44184 23.3402 5.57879 24.001 4.58899L23.954 4.56899Z" fill="white"/>
</g>
<defs>
<clipPath id="clip0_27_6">
<rect width="24" height="24" fill="white"/>
</clipPath>
</defs>
</svg>
